# xmcd
#
# Track frame offsets: 
#        150
#        15650
#        35038
#        52078
#
# Disc length: 866 seconds
#
# Revision: 0
# Processed by: cddbd v1.5.2PL0 Copyright (c) Steve Scherf et al.
# Submitted via: ExactAudioCopy v0.99pb4
#
DISCID=30036004
DTITLE=Natascha Sohl - Dirty Little Word EP
DYEAR=2006
DGENRE=Indie
TTITLE0=Dirty Little Word
TTITLE1=Beauty In The Silence
TTITLE2=Hands Off My Past
TTITLE3=Afterglow
EXTD=
EXTT0=
EXTT1=
EXTT2=
EXTT3=
PLAYORDER=
